<?xml version="1.0" encoding="UTF-8" standalone="no"?>
<!DOCTYPE svg PUBLIC "-//W3C//DTD SVG 1.1//EN" "http://www.w3.org/Graphics/SVG/1.1/DTD/svg11.dtd">
<svg width="100%" height="100%" viewBox="0 0 602 403" version="1.1" xmlns="http://www.w3.org/2000/svg" xmlns:xlink="http://www.w3.org/1999/xlink" xml:space="preserve" xmlns:serif="http://www.serif.com/" style="fill-rule:evenodd;clip-rule:evenodd;stroke-linecap:round;stroke-linejoin:round;stroke-miterlimit:1.5;">
    <g transform="matrix(1,0,0,1,0.787515,0.928579)">
        <g transform="matrix(0.10334,0,0,0.0849504,-229.81,-197.729)">
            <g transform="matrix(9.67683,0,0,11.7716,2223.84,2327.59)">
                <rect x="-0.166" y="-0.475" width="600.654" height="401.208" style="fill:none;stroke:black;stroke-width:0.83px;"/>
            </g>
        </g>
        <g transform="matrix(0.10334,0,0,0.0849504,-229.81,-197.729)">
            <g transform="matrix(1,0,0,1,1.24752,0.826976)">
                <g transform="matrix(7.34453,0,0,8.16176,4726.29,3262.67)">
                    <ellipse cx="54.743" cy="172.268" rx="24.317" ry="26.049" style="fill:none;stroke:black;stroke-width:1.15px;"/>
                </g>
                <g transform="matrix(9.67683,0,0,11.7716,4598.62,2640.82)">
                    <ellipse cx="54.427" cy="172.981" rx="5.252" ry="5.153" style="fill:none;stroke:black;stroke-width:0.83px;"/>
                </g>
            </g>
        </g>
        <g transform="matrix(0.10334,0,0,0.0849504,-229.81,-197.729)">
            <g transform="matrix(1,0,0,1,1.24752,883.695)">
                <g transform="matrix(7.34453,0,0,8.16176,4726.29,3262.67)">
                    <ellipse cx="54.743" cy="172.268" rx="24.317" ry="26.049" style="fill:none;stroke:black;stroke-width:1.15px;"/>
                </g>
                <g transform="matrix(9.67683,0,0,11.7716,4598.62,2640.82)">
                    <ellipse cx="54.427" cy="172.981" rx="5.252" ry="5.153" style="fill:none;stroke:black;stroke-width:0.83px;"/>
                </g>
            </g>
        </g>
        <g transform="matrix(0.10334,0,0,0.0849504,-229.81,-197.729)">
            <g transform="matrix(1,0,0,1,1.24752,1766.56)">
                <g transform="matrix(7.34453,0,0,8.16176,4726.29,3262.67)">
                    <ellipse cx="54.743" cy="172.268" rx="24.317" ry="26.049" style="fill:none;stroke:black;stroke-width:1.15px;"/>
                </g>
                <g transform="matrix(9.67683,0,0,11.7716,4598.62,2640.82)">
                    <ellipse cx="54.427" cy="172.981" rx="5.252" ry="5.153" style="fill:none;stroke:black;stroke-width:0.83px;"/>
                </g>
            </g>
        </g>
        <g transform="matrix(0.10334,0,0,0.0849504,-229.81,-197.729)">
            <g transform="matrix(1,0,0,1,1.24752,-1753.14)">
                <g transform="matrix(7.34453,0,0,8.16176,4726.29,3262.67)">
                    <ellipse cx="54.743" cy="172.268" rx="24.317" ry="26.049" style="fill:none;stroke:black;stroke-width:1.15px;"/>
                </g>
                <g transform="matrix(9.67683,0,0,11.7716,4598.62,2640.82)">
                    <ellipse cx="54.427" cy="172.981" rx="5.252" ry="5.153" style="fill:none;stroke:black;stroke-width:0.83px;"/>
                </g>
            </g>
        </g>
        <g transform="matrix(0.10334,0,0,0.0849504,-229.81,-197.729)">
            <g transform="matrix(1,0,0,1,1.24752,-870.27)">
                <g transform="matrix(7.34453,0,0,8.16176,4726.29,3262.67)">
                    <ellipse cx="54.743" cy="172.268" rx="24.317" ry="26.049" style="fill:none;stroke:black;stroke-width:1.15px;"/>
                </g>
                <g transform="matrix(9.67683,0,0,11.7716,4598.62,2640.82)">
                    <ellipse cx="54.427" cy="172.981" rx="5.252" ry="5.153" style="fill:none;stroke:black;stroke-width:0.83px;"/>
                </g>
            </g>
        </g>
        <g transform="matrix(0.10334,0,0,0.0849504,-229.81,-197.729)">
            <g transform="matrix(1,0,0,1,717.333,0.826976)">
                <g transform="matrix(7.34453,0,0,8.16176,4726.29,3262.67)">
                    <ellipse cx="54.743" cy="172.268" rx="24.317" ry="26.049" style="fill:none;stroke:black;stroke-width:1.15px;"/>
                </g>
                <g transform="matrix(9.67683,0,0,11.7716,4598.62,2640.82)">
                    <ellipse cx="54.427" cy="172.981" rx="5.252" ry="5.153" style="fill:none;stroke:black;stroke-width:0.83px;"/>
                </g>
            </g>
        </g>
        <g transform="matrix(0.10334,0,0,0.0849504,-229.81,-197.729)">
            <g transform="matrix(1,0,0,1,1443.09,0.826976)">
                <g transform="matrix(7.34453,0,0,8.16176,4726.29,3262.67)">
                    <ellipse cx="54.743" cy="172.268" rx="24.317" ry="26.049" style="fill:none;stroke:black;stroke-width:1.15px;"/>
                </g>
                <g transform="matrix(9.67683,0,0,11.7716,4598.62,2640.82)">
                    <ellipse cx="54.427" cy="172.981" rx="5.252" ry="5.153" style="fill:none;stroke:black;stroke-width:0.83px;"/>
                </g>
            </g>
        </g>
        <g transform="matrix(0.10334,0,0,0.0849504,-229.81,-197.729)">
            <g transform="matrix(1,0,0,1,2159.18,0.826976)">
                <g transform="matrix(7.34453,0,0,8.16176,4726.29,3262.67)">
                    <ellipse cx="54.743" cy="172.268" rx="24.317" ry="26.049" style="fill:none;stroke:black;stroke-width:1.15px;"/>
                </g>
                <g transform="matrix(9.67683,0,0,11.7716,4598.62,2640.82)">
                    <ellipse cx="54.427" cy="172.981" rx="5.252" ry="5.153" style="fill:none;stroke:black;stroke-width:0.83px;"/>
                </g>
            </g>
        </g>
        <g transform="matrix(0.10334,0,0,0.0849504,-229.81,-197.729)">
            <g transform="matrix(1,0,0,1,2159.18,0.826976)">
                <g transform="matrix(7.34453,0,0,8.16176,4726.29,3262.67)">
                    <ellipse cx="54.743" cy="172.268" rx="24.317" ry="26.049" style="fill:none;stroke:black;stroke-width:1.15px;"/>
                </g>
                <g transform="matrix(9.67683,0,0,11.7716,4598.62,2640.82)">
                    <ellipse cx="54.427" cy="172.981" rx="5.252" ry="5.153" style="fill:none;stroke:black;stroke-width:0.83px;"/>
                </g>
            </g>
        </g>
        <g transform="matrix(0.10334,0,0,0.0849504,-229.81,-197.729)">
            <g transform="matrix(1,0,0,1,-2166.36,0.826976)">
                <g transform="matrix(7.34453,0,0,8.16176,4726.29,3262.67)">
                    <ellipse cx="54.743" cy="172.268" rx="24.317" ry="26.049" style="fill:none;stroke:black;stroke-width:1.15px;"/>
                </g>
                <g transform="matrix(9.67683,0,0,11.7716,4598.62,2640.82)">
                    <ellipse cx="54.427" cy="172.981" rx="5.252" ry="5.153" style="fill:none;stroke:black;stroke-width:0.83px;"/>
                </g>
            </g>
        </g>
        <g transform="matrix(0.10334,0,0,0.0849504,-229.81,-197.729)">
            <g transform="matrix(1,0,0,1,-1440.6,0.826976)">
                <g transform="matrix(7.34453,0,0,8.16176,4726.29,3262.67)">
                    <ellipse cx="54.743" cy="172.268" rx="24.317" ry="26.049" style="fill:none;stroke:black;stroke-width:1.15px;"/>
                </g>
                <g transform="matrix(9.67683,0,0,11.7716,4598.62,2640.82)">
                    <ellipse cx="54.427" cy="172.981" rx="5.252" ry="5.153" style="fill:none;stroke:black;stroke-width:0.83px;"/>
                </g>
            </g>
        </g>
        <g transform="matrix(0.10334,0,0,0.0849504,-229.81,-197.729)">
            <g transform="matrix(1,0,0,1,-724.515,0.826976)">
                <g transform="matrix(7.34453,0,0,8.16176,4726.29,3262.67)">
                    <ellipse cx="54.743" cy="172.268" rx="24.317" ry="26.049" style="fill:none;stroke:black;stroke-width:1.15px;"/>
                </g>
                <g transform="matrix(9.67683,0,0,11.7716,4598.62,2640.82)">
                    <ellipse cx="54.427" cy="172.981" rx="5.252" ry="5.153" style="fill:none;stroke:black;stroke-width:0.83px;"/>
                </g>
            </g>
        </g>
        <g transform="matrix(0.10334,0,0,0.0849504,-229.81,-197.729)">
            <g transform="matrix(1,0,0,1,-724.515,0.826976)">
                <g transform="matrix(7.34453,0,0,8.16176,4726.29,3262.67)">
                    <ellipse cx="54.743" cy="172.268" rx="24.317" ry="26.049" style="fill:none;stroke:black;stroke-width:1.15px;"/>
                </g>
                <g transform="matrix(9.67683,0,0,11.7716,4598.62,2640.82)">
                    <ellipse cx="54.427" cy="172.981" rx="5.252" ry="5.153" style="fill:none;stroke:black;stroke-width:0.83px;"/>
                </g>
            </g>
        </g>
        <g transform="matrix(0.10334,0,0,0.0849504,-229.81,-197.729)">
            <g transform="matrix(9.67683,0,0,11.7716,2226.08,2327.59)">
                <path d="M299.768,-0.512L299.768,399.791" style="fill:none;stroke:black;stroke-width:0.83px;"/>
            </g>
        </g>
        <g transform="matrix(0.10334,0,0,0.0849504,-229.81,-197.729)">
            <g transform="matrix(12.5006,0,0,11.7418,1375.97,2327.61)">
                <rect x="300.261" y="0.754" width="115.419" height="399.879" style="fill:none;stroke:black;stroke-width:0.72px;"/>
            </g>
        </g>
        <g transform="matrix(0.10334,0,0,0.0849504,-229.81,-197.729)">
            <g transform="matrix(12.5006,0,0,11.7325,2816.36,2327.61)">
                <rect x="300.261" y="0.754" width="115.419" height="399.879" style="fill:none;stroke:black;stroke-width:0.72px;"/>
            </g>
        </g>
        <g transform="matrix(0.10334,0,0,0.0849504,-229.81,-197.729)">
            <g transform="matrix(12.7213,0,0,11.7716,-1599.46,2327.59)">
                <rect x="300.261" y="0.754" width="115.419" height="399.879" style="fill:none;stroke:black;stroke-width:0.71px;"/>
            </g>
        </g>
        <g transform="matrix(0.10334,0,0,0.0849504,-229.81,-197.729)">
            <g transform="matrix(12.5006,0,0,11.7716,-67.3349,2327.59)">
                <rect x="300.261" y="0.754" width="115.419" height="399.879" style="fill:none;stroke:black;stroke-width:0.72px;"/>
            </g>
        </g>
        <g transform="matrix(0.10334,0,0,0.0849504,-229.81,-197.729)">
            <g transform="matrix(9.72055,0,0,11.8782,2210.5,2306.27)">
                <rect x="1.324" y="126.604" width="595.64" height="73.401" style="fill:none;stroke:black;stroke-width:0.83px;"/>
            </g>
        </g>
        <g transform="matrix(0.10334,0,0,0.0849504,-229.81,-197.729)">
            <g transform="matrix(9.72055,0,0,11.9253,2210.5,4039.04)">
                <rect x="1.324" y="126.604" width="595.64" height="73.401" style="fill:none;stroke:black;stroke-width:0.83px;"/>
            </g>
        </g>
        <g transform="matrix(0.10334,0,0,0.0849504,-229.81,-197.729)">
            <g transform="matrix(9.72055,0,0,11.9253,2210.5,1425.75)">
                <rect x="1.324" y="126.604" width="595.64" height="73.401" style="fill:none;stroke:black;stroke-width:0.83px;"/>
            </g>
        </g>
        <g transform="matrix(0.10334,0,0,0.0849504,-229.81,-197.729)">
            <g transform="matrix(9.67683,0,0,11.7716,2235.56,2327.59)">
                <path d="M74.658,-0.342L74.658,398.954" style="fill:none;stroke:black;stroke-width:0.83px;"/>
            </g>
        </g>
        <g transform="matrix(0.10334,0,0,0.0849504,-229.81,-197.729)">
            <g transform="matrix(9.67683,0,0,11.7716,3680.46,2343.22)">
                <path d="M74.658,-0.342L74.658,398.954" style="fill:none;stroke:black;stroke-width:0.83px;"/>
            </g>
        </g>
        <g transform="matrix(0.10334,0,0,0.0849504,-229.81,-197.729)">
            <g transform="matrix(9.67683,0,0,11.7716,5119.27,2345.19)">
                <path d="M74.658,-0.342L74.658,398.954" style="fill:none;stroke:black;stroke-width:0.83px;"/>
            </g>
        </g>
        <g transform="matrix(0.10334,0,0,0.0849504,-229.81,-197.729)">
            <g transform="matrix(9.67683,0,0,11.7716,6561.8,2341.91)">
                <path d="M74.658,-0.342L74.658,398.954" style="fill:none;stroke:black;stroke-width:0.83px;"/>
            </g>
        </g>
    </g>
</svg>
